<svg xmlns="http://www.w3.org/2000/svg" viewBox="0 0 24 24" fill="none" stroke="#2563eb" stroke-width="2" stroke-linecap="round" stroke-linejoin="round">
  <path d="M12 3v18" />
  <path d="M6 8l-4 4 4 4" opacity="0" />
  <path d="M3 12h6l-1 5H4c-1 0-2-1-2-2v-3z" />
  <path d="M21 12h-6l1 5h4c1 0 2-1 2-2v-3z" />
  <path d="M2 12h20" opacity="0.5"/>
  <path d="M8 8H4a2 2 0 0 0-2 2v4a2 2 0 0 0 2 2h4" />
  <path d="M16 8h4a2 2 0 0 1 2 2v4a2 2 0 0 1-2 2h-4" />
  <path d="M12 3L2 12" opacity="0.1"/>
  <path d="M12 3l10 9" opacity="0.1"/>
  <path d="M6 12v5" />
  <path d="M18 12v5" />
</svg>
